<svg aria-hidden="true" style="position: absolute; width: 0; height: 0; overflow: hidden;" version="1.1" xmlns="http://www.w3.org/2000/svg" xmlns:xlink="http://www.w3.org/1999/xlink">
<defs>
<symbol id="icon-burger" viewBox="0 0 31 32">
<path stroke-linejoin="round" stroke-linecap="round" stroke-miterlimit="4" stroke-width="1.9394" d="M27.151 13.414h-23.273M27.151 8.242h-23.273M27.151 18.586h-23.273M27.151 23.758h-23.273"></path>
</symbol>
<symbol id="icon-hat-cook" viewBox="0 0 37 32">
<path fill="#9bb537" style="fill: var(--color1, #9bb537)" d="M7.325 12.723h23.133v17.735h-23.133v-17.735z"></path>
<path fill="#9bb537" style="fill: var(--color1, #9bb537)" d="M16.578 11.373c0 4.578-3.711 8.289-8.289 8.289s-8.289-3.711-8.289-8.289 3.711-8.289 8.289-8.289 8.289 3.711 8.289 8.289z"></path>
<path fill="#9bb537" style="fill: var(--color1, #9bb537)" d="M26.988 8.289c0 4.578-3.711 8.289-8.289 8.289s-8.289-3.711-8.289-8.289 3.711-8.289 8.289-8.289 8.289 3.711 8.289 8.289z"></path>
<path fill="#9bb537" style="fill: var(--color1, #9bb537)" d="M37.398 11.373c0 4.578-3.711 8.289-8.289 8.289s-8.289-3.711-8.289-8.289 3.711-8.289 8.289-8.289 8.289 3.711 8.289 8.289z"></path>
<path fill="#f8f8f8" style="fill: var(--color2, #f8f8f8)" d="M7.325 29.301h23.133v2.036c0 0.366-0.324 0.663-0.723 0.663h-21.687c-0.399 0-0.723-0.297-0.723-0.663v-2.036zM14.265 10.36c0-0.611 0.432-1.107 0.964-1.107s0.964 0.495 0.964 1.107v5.112c0 0.611-0.432 1.107-0.964 1.107s-0.964-0.495-0.964-1.107v-5.112zM17.349 10.36c0-0.611 0.604-1.107 1.349-1.107s1.349 0.495 1.349 1.107v5.112c0 0.611-0.604 1.107-1.349 1.107s-1.349-0.495-1.349-1.107v-5.112zM21.205 10.36c0-0.611 0.432-1.107 0.964-1.107s0.964 0.495 0.964 1.107v5.112c0 0.611-0.432 1.107-0.964 1.107s-0.964-0.495-0.964-1.107v-5.112z"></path>
<path fill="#050505" style="fill: var(--color3, #050505)" d="M28.184 3.131c0.262-0.029 0.566-0.045 0.874-0.045 0.002 0 0.003 0 0.005 0h-0c3.714 0 6.861 2.412 7.938 5.746-0.289 0.030-0.582 0.046-0.878 0.046-3.714 0-6.861-2.413-7.938-5.746z"></path>
</symbol>
<symbol id="icon-heart" viewBox="0 0 32 32">
<path opacity="0.5" stroke-linejoin="round" stroke-linecap="round" stroke-miterlimit="4" stroke-width="2.9091" d="M15.99 6.848c-2.665-3.117-7.111-3.956-10.451-1.101-3.34 2.854-3.811 7.625-1.187 11.001 2.182 2.806 8.781 8.724 10.944 10.64 0.241 0.214 0.364 0.321 0.503 0.364 0.057 0.017 0.123 0.028 0.191 0.028s0.133-0.010 0.195-0.029l-0.005 0.001c0.143-0.042 0.262-0.15 0.505-0.364 2.163-1.916 8.764-7.834 10.944-10.64 2.623-3.375 2.211-8.177-1.187-11.001-3.398-2.825-7.786-2.016-10.452 1.101z"></path>
</symbol>
<symbol id="icon-shopping-cart02" viewBox="0 0 32 32">
<path stroke-linejoin="round" stroke-linecap="round" stroke-miterlimit="4" stroke-width="2.6667" d="M12 29.333c0.736 0 1.333-0.597 1.333-1.333s-0.597-1.333-1.333-1.333v0c-0.736 0-1.333 0.597-1.333 1.333s0.597 1.333 1.333 1.333v0zM26.667 29.333c0.736 0 1.333-0.597 1.333-1.333s-0.597-1.333-1.333-1.333v0c-0.736 0-1.333 0.597-1.333 1.333s0.597 1.333 1.333 1.333v0z"></path>
<path stroke-linejoin="round" stroke-linecap="round" stroke-miterlimit="4" stroke-width="2.4" d="M1.333 1.333h5.333l3.573 17.853c0.251 1.233 1.327 2.147 2.616 2.147 0.018 0 0.036-0 0.054-0.001l-0.003 0h12.96c0.015 0 0.033 0 0.051 0 1.289 0 2.364-0.914 2.613-2.13l0.003-0.017 2.133-11.187h-22.667"></path>
</symbol>
<symbol id="icon-star" viewBox="0 0 32 32">
<path d="M13.464 3.805c0.8-2.456 4.275-2.456 5.072 0l1.653 5.093c0.359 1.077 1.358 1.84 2.535 1.84 0.001 0 0.002 0 0.004 0h5.354c2.581 0 3.656 3.307 1.568 4.827l-4.333 3.147c-0.669 0.49-1.099 1.274-1.099 2.157 0 0.295 0.048 0.578 0.136 0.843l-0.005-0.019 1.653 5.093c0.8 2.456-2.013 4.501-4.104 2.981l-4.331-3.147c-0.434-0.319-0.979-0.51-1.568-0.51s-1.134 0.191-1.575 0.515l0.007-0.005-4.331 3.147c-2.091 1.52-4.904-0.525-4.107-2.981l1.656-5.093c0.083-0.246 0.131-0.53 0.131-0.824 0-0.883-0.43-1.666-1.091-2.152l-0.007-0.005-4.333-3.147c-2.088-1.52-1.013-4.827 1.568-4.827h5.355c0 0 0 0 0.001 0 1.177 0 2.176-0.763 2.53-1.821l0.005-0.019 1.653-5.093z"></path>
</symbol>
<symbol id="icon-switch" viewBox="0 0 50 32">
<path fill="#cecdcd" style="fill: var(--color4, #cecdcd)" d="M13.176 6.902h16.314c3.465 0 6.274 2.809 6.274 6.274s-2.809 6.275-6.274 6.275h-16.314c-3.465 0-6.274-2.809-6.274-6.274s2.809-6.274 6.274-6.274z"></path>
<path fill="#f8f8f8" style="fill: var(--color2, #f8f8f8)" d="M19.075 13.176c0 3.257-2.641 5.898-5.898 5.898s-5.898-2.641-5.898-5.898c0-3.257 2.641-5.898 5.898-5.898s5.898 2.641 5.898 5.898z"></path>
</symbol>
<symbol id="icon-x" viewBox="0 0 32 32">
<path stroke-linejoin="round" stroke-linecap="round" stroke-miterlimit="4" stroke-width="2.6667" d="M24 8l-16 16M8 8l16 16"></path>

</symbol>
</defs>
</svg>
